<svg xmlns="http://www.w3.org/2000/svg" xmlns:xlink="http://www.w3.org/1999/xlink" width="22" height="20" viewBox="0 0 22 20"><defs><path id="6sa7a" d="M1360.946 6434.351V6443h-7.973v-6.892c0-3.784.405-6.351 1.351-8.108 1.217-2.162 2.973-3.919 5.54-5l1.758 2.973c-1.487.676-2.703 1.622-3.379 2.838-.675 1.216-1.08 3.108-1.216 5.54zm-12.973 0V6443H1340v-6.892c0-3.649.405-6.351 1.351-8.108 1.217-2.162 2.973-3.919 5.54-5l1.893 2.973c-1.487.676-2.703 1.622-3.379 2.838-.81 1.216-1.216 3.108-1.216 5.54z"/></defs><g><g transform="translate(-1340 -6423)"><use fill="#212226" xlink:href="#6sa7a"/></g></g></svg>