<svg xmlns="http://www.w3.org/2000/svg" xmlns:xlink="http://www.w3.org/1999/xlink" width="22" height="20" viewBox="0 0 22 20"><defs><path id="n2poa" d="M770.946 4650.351V4659h-7.973v-6.892c0-3.784.405-6.351 1.351-8.108 1.217-2.162 2.973-3.919 5.54-5l1.758 2.973c-1.487.676-2.703 1.622-3.379 2.838-.675 1.216-1.08 3.108-1.216 5.54zm-12.973 0V4659H750v-6.892c0-3.649.405-6.351 1.351-8.108 1.217-2.162 2.973-3.919 5.54-5l1.893 2.973c-1.487.676-2.703 1.622-3.379 2.838-.81 1.216-1.216 3.108-1.216 5.54z"/></defs><g><g transform="translate(-750 -4639)"><use fill="#fed53d" xlink:href="#n2poa"/></g></g></svg>